# xmcd CD database file
# Generated: Son Sep 28 00:50:29 2003 by KSCD
# 
# Track frame offsets:
#       150
#       21604
#       32357
#       48659
#       61219
#       72330
#       83354
#       94845
#       107080
#       117569
#       127197
#       140334
#       155121
#       165052
#       178919
#       189560
#       200690
#       218296
#       232045
#
# Disc length: 3220 seconds
#
# Revision: 0
# Processed by: cddbd v1.4PL0 Copyright (c) Steve Scherf et al.
# Submitted via: Kscd 1.3.3
#
DISCID=0e0c9213
DTITLE=Various Artist - The story of Rhythm and Blues [CD10)
DYEAR=1900
DGENRE=
TTITLE0=Muddy Waters - What's the matter with the mill 
TTITLE1=Bobo Jenkins - Nothing but love 
TTITLE2=Albert Ammons - Boogie woogie stomp 
TTITLE3=George Washington and Johnny Otis - Good boogie woogie 
TTITLE4=Jimmy Witherspoon - In the evening when the sun goes down 
TTITLE5=Smiley Lewis - One night 
TTITLE6=Nappy Brown - Little by little 
TTITLE7=Aurelin and Ivory Joe Hunter - Are you hep? 
TTITLE8=Amos Milburn - Real pretty mama blues 
TTITLE9=Howlin' Wolf - Look-a-here baby 
TTITLE10=Chet Oliver - Going back to Chicago 
TTITLE11=Martha Davis and Louis Jordan - Daddy-O 
TTITLE12=Doctor Ross - Numbers boogie 
TTITLE13=John Lee Hooker - We're all god's chillun 
TTITLE14=Clyde McPhater - Deep sea ball 
TTITLE15=Jerry McCain /The jigs up 
TTITLE16=Muddy Waters - Howlin' Wolf 
TTITLE17=Louis Jordan - Texas and Pacific 
TTITLE18=Etta James - That's all 
EXTD=(c) Digimode Entertainment Ltd. UK 
EXTT0=Morganfield 
EXTT1=Jenkins 
EXTT2=Smith - Ammons 
EXTT3=Savil - Washington 
EXTT4=Carr 
EXTT5=Lewis 
EXTT6=Brown 
EXTT7=Hunter 
EXTT8=Williams - Jones 
EXTT9=Burnett 
EXTT10=Oliver 
EXTT11=Raye - De Paul 
EXTT12=Ross 
EXTT13=Hooker 
EXTT14=McPather 
EXTT15=McCain 
EXTT16=Morganfield 
EXTT17=Jordan 
EXTT18=James 
PLAYORDER=
